<svg width="40" height="47" viewBox="0 0 40 47" fill="none" xmlns="http://www.w3.org/2000/svg">
<path d="M-0.153959 46.6381C5.00747 46.6381 34.8677 46.6381 40.0231 46.6381C40.222 42.0563 39.8939 34.4544 37.0768 30.8363L36.975 30.7063L30.8192 27.6156C30.9529 27.1647 31.0187 26.7517 31.0451 26.4481C31.0755 26.0838 31.0253 25.7414 30.8952 25.4314C29.8796 23.0013 27.7307 21.7228 26.5486 21.1777C26.9089 20.452 27.1411 19.6729 27.2533 18.8768C27.9224 18.6883 28.4606 18.158 28.6371 17.4506L29.3556 14.5316C29.4829 14.0166 29.403 13.4826 29.1293 13.0284C29.0115 12.8326 28.8592 12.6677 28.6884 12.5268C30.7142 7.92517 27.3213 3.5863 27.1364 3.35791C23.4617 -0.615096 18.8196 0.127805 18.5742 0.171834C11.8751 1.57462 9.28981 6.70877 10.7494 12.7302C10.317 13.2092 10.1355 13.8765 10.2957 14.5309L11.0178 17.4531C11.1928 18.1553 11.7268 18.6837 12.3911 18.8744C12.5961 20.3323 13.2132 21.6509 14.1196 22.7136V25.0277C4.50617 29.9507 10.5975 26.8099 2.89339 30.7074C2.87816 30.7801 -0.721533 34.6058 -0.186489 45.9453L-0.153959 46.6381ZM38.627 45.1836H32.0147V42.4059L36.388 32.3941C38.579 36.0305 38.6603 42.9737 38.627 45.1836ZM29.6024 26.3245C29.3472 29.2558 27.7397 28.3698 26.7474 30.6282C25.9669 29.7699 25.7322 28.7408 25.9419 27.6392C26.3209 25.6164 25.0863 25.0157 25.3914 22.8903L25.4377 22.8416V22.8348C25.4639 22.8055 25.7074 22.5156 25.7778 22.424C28.394 23.5644 29.6535 25.6854 29.6024 26.3245ZM15.5679 24.0206C16.7824 24.8629 18.2484 25.3608 19.8253 25.3608C21.3103 25.3608 22.7208 24.9287 23.93 24.133C24.0976 25.8038 24.7507 26.1383 24.519 27.3679C24.4755 27.5961 24.452 27.821 24.4381 28.0422L19.9349 33.1175L14.1783 26.6276L15.5679 25.902V24.0206H15.5679ZM13.7575 17.8093V14.9953C13.7575 13.9591 13.7575 9.8481 13.7575 10.0511C14.4583 8.75493 15.4137 7.81495 16.6011 7.25138C19.7813 9.05072 23.4418 11.736 25.8967 14.4386C25.8943 17.8803 25.9064 17.8896 25.8835 18.1724L25.8819 18.1904C25.6904 21.3156 23.1206 23.9062 19.8253 23.9062C16.6217 23.9062 13.9619 21.3909 13.7695 18.1594C13.7596 18.0436 13.7575 17.9275 13.7575 17.8093ZM12.8607 27.3295L19.9349 35.3043L24.6843 29.9515C24.7928 30.2641 24.9451 30.5593 25.1192 30.8446L19.9349 37.3277L12.2041 27.6591L12.8607 27.3295ZM27.345 16.6388V14.392C27.4086 14.319 27.9486 13.6999 27.885 13.7729C27.9148 14.9105 28.0376 13.5678 27.345 16.6388ZM18.8423 1.60117C19.1296 1.61906 22.99 1.01398 26.0409 4.30785C26.161 4.4586 28.6446 7.65848 27.6469 11.159C27.3054 9.60135 26.7101 7.60526 25.7694 6.65266L24.7411 7.67681C25.6699 8.61759 26.28 11.4825 26.5124 12.9677C22.2518 8.5094 16.7557 5.68763 16.6803 5.63988C16.4047 5.81131 14.0789 6.25349 12.3897 9.53654L12.3091 9.6935V12.1047C12.2366 12.1055 12.0237 12.1078 12.0962 12.107C11.023 6.92547 13.0782 2.80932 18.8423 1.60117ZM11.9436 13.6033L12.3091 15.0841V16.6406L11.7016 14.1818C11.6125 13.8153 11.884 13.6763 11.9436 13.6033ZM10.8787 28.3245L19.9349 39.6509L26.0622 31.9874C26.7287 32.5839 27.0492 32.6685 28.4624 33.3952L27.9857 31.7784C27.8648 31.3679 28.3436 30.7095 28.6328 30.4069C29.2784 30.0567 29.8166 29.5573 30.2191 28.9407L35.2183 31.451L30.5663 42.1012V45.1836H9.30278V42.1008L4.64867 31.452L10.8787 28.3245ZM3.48036 32.3973L7.85443 42.4062V45.1836H1.24206C1.20883 42.9744 1.29086 36.0348 3.48036 32.3973Z" fill="#FF6B09"/>
</svg>
