<!-- Generated by IcoMoon.io -->
<svg version="1.1" xmlns="http://www.w3.org/2000/svg" width="1" height="32" viewBox="0 0 1 32">
<title>line-point</title>
<path fill="#ff6b09" d="M0.441 0.53c-0.146 0-0.265-0.119-0.265-0.265s0.119-0.265 0.265-0.265c0.146 0 0.265 0.119 0.265 0.265s-0.119 0.265-0.265 0.265z"></path>
<path fill="#ff6b09" d="M0.441 6.709c-0.146 0-0.265-0.119-0.265-0.265s0.119-0.265 0.265-0.265c0.146 0 0.265 0.119 0.265 0.265s-0.119 0.265-0.265 0.265z"></path>
<path fill="#ff6b09" d="M0.441 13.771c-0.146 0-0.265-0.119-0.265-0.265s0.119-0.265 0.265-0.265c0.146 0 0.265 0.119 0.265 0.265s-0.119 0.265-0.265 0.265z"></path>
<path fill="#ff6b09" d="M0.441 21.937c-0.146 0-0.265-0.119-0.265-0.265s0.119-0.265 0.265-0.265c0.146 0 0.265 0.119 0.265 0.265s-0.119 0.265-0.265 0.265z"></path>
<path fill="#ff6b09" d="M0.441 31.647c-0.146 0-0.265-0.119-0.265-0.265s0.119-0.265 0.265-0.265c0.146 0 0.265 0.119 0.265 0.265s-0.119 0.265-0.265 0.265z"></path>
</svg>
